<mxfile host="app.diagrams.net" agent="Mozilla/5.0 (Windows NT 10.0; Win64; x64) AppleWebKit/537.36 (KHTML, like Gecko) Chrome/135.0.0.0 Safari/537.36 OPR/120.0.0.0" version="28.1.1">
  <diagram name="PÃ¡gina-1" id="eC3P_L-lj1VCmn-JV5OG">
    <mxGraphModel dx="1385" dy="763" grid="1" gridSize="10" guides="1" tooltips="1" connect="1" arrows="1" fold="1" page="1" pageScale="1" pageWidth="827" pageHeight="1169" math="0" shadow="0">
      <root>
        <mxCell id="0" />
        <mxCell id="1" parent="0" />
        <mxCell id="wrdZNbvJKTnP5NnuVsGi-5" value="Usuario" style="shape=umlActor;verticalLabelPosition=bottom;verticalAlign=top;html=1;labelPosition=center;align=center;" parent="1" vertex="1">
          <mxGeometry x="80" y="190" width="30" height="60" as="geometry" />
        </mxCell>
        <mxCell id="wrdZNbvJKTnP5NnuVsGi-7" value="V_Catalog.tsx" style="html=1;whiteSpace=wrap;fillColor=#ffe6cc;strokeColor=#d79b00;" parent="1" vertex="1">
          <mxGeometry x="180" y="195" width="110" height="50" as="geometry" />
        </mxCell>
        <mxCell id="wrdZNbvJKTnP5NnuVsGi-8" value="C_Catalog&lt;br&gt;(route.ts)" style="html=1;whiteSpace=wrap;fillColor=#e1d5e7;strokeColor=#9673a6;" parent="1" vertex="1">
          <mxGeometry x="370" y="195" width="110" height="50" as="geometry" />
        </mxCell>
        <mxCell id="wrdZNbvJKTnP5NnuVsGi-10" value="" style="endArrow=none;dashed=1;html=1;rounded=0;" parent="1" edge="1">
          <mxGeometry width="50" height="50" relative="1" as="geometry">
            <mxPoint x="100" y="720" as="sourcePoint" />
            <mxPoint x="100" y="270" as="targetPoint" />
          </mxGeometry>
        </mxCell>
        <mxCell id="wrdZNbvJKTnP5NnuVsGi-11" value="" style="endArrow=none;dashed=1;html=1;rounded=0;entryX=0.5;entryY=1;entryDx=0;entryDy=0;" parent="1" target="wrdZNbvJKTnP5NnuVsGi-7" edge="1">
          <mxGeometry width="50" height="50" relative="1" as="geometry">
            <mxPoint x="235" y="720" as="sourcePoint" />
            <mxPoint x="280" y="330" as="targetPoint" />
          </mxGeometry>
        </mxCell>
        <mxCell id="wrdZNbvJKTnP5NnuVsGi-12" value="" style="endArrow=classic;html=1;rounded=0;" parent="1" edge="1">
          <mxGeometry width="50" height="50" relative="1" as="geometry">
            <mxPoint x="100" y="340" as="sourcePoint" />
            <mxPoint x="230" y="340" as="targetPoint" />
          </mxGeometry>
        </mxCell>
        <mxCell id="wrdZNbvJKTnP5NnuVsGi-13" value="Desplazamiento/scroll" style="text;html=1;align=center;verticalAlign=middle;whiteSpace=wrap;rounded=0;" parent="1" vertex="1">
          <mxGeometry x="130" y="310" width="80" height="30" as="geometry" />
        </mxCell>
        <mxCell id="wrdZNbvJKTnP5NnuVsGi-15" value="" style="endArrow=none;dashed=1;html=1;rounded=0;entryX=0.5;entryY=1;entryDx=0;entryDy=0;" parent="1" target="wrdZNbvJKTnP5NnuVsGi-8" edge="1">
          <mxGeometry width="50" height="50" relative="1" as="geometry">
            <mxPoint x="426" y="720" as="sourcePoint" />
            <mxPoint x="236" y="330" as="targetPoint" />
          </mxGeometry>
        </mxCell>
        <mxCell id="EEQ0ORQc2KB4gsm6ORqx-8" value="" style="endArrow=none;dashed=1;html=1;rounded=0;entryX=0.5;entryY=1;entryDx=0;entryDy=0;" parent="1" edge="1">
          <mxGeometry width="50" height="50" relative="1" as="geometry">
            <mxPoint x="665" y="720" as="sourcePoint" />
            <mxPoint x="665" y="245" as="targetPoint" />
          </mxGeometry>
        </mxCell>
        <mxCell id="EEQ0ORQc2KB4gsm6ORqx-14" value="&lt;font&gt;GET /api/products&lt;/font&gt;" style="html=1;verticalAlign=bottom;endArrow=block;curved=0;rounded=0;" parent="1" edge="1">
          <mxGeometry width="80" relative="1" as="geometry">
            <mxPoint x="240" y="370" as="sourcePoint" />
            <mxPoint x="420" y="370" as="targetPoint" />
            <mxPoint as="offset" />
          </mxGeometry>
        </mxCell>
        <mxCell id="EEQ0ORQc2KB4gsm6ORqx-17" value="SELECT * FROM products LIMIT 20 OFFSET 40" style="html=1;verticalAlign=bottom;endArrow=block;curved=0;rounded=0;" parent="1" edge="1">
          <mxGeometry width="80" relative="1" as="geometry">
            <mxPoint x="430" y="400" as="sourcePoint" />
            <mxPoint x="660" y="400" as="targetPoint" />
            <mxPoint as="offset" />
          </mxGeometry>
        </mxCell>
        <mxCell id="EEQ0ORQc2KB4gsm6ORqx-18" value="Lista de productos de 20 productos" style="html=1;verticalAlign=bottom;endArrow=open;dashed=1;endSize=8;curved=0;rounded=0;" parent="1" edge="1">
          <mxGeometry relative="1" as="geometry">
            <mxPoint x="660" y="460" as="sourcePoint" />
            <mxPoint x="430" y="460" as="targetPoint" />
          </mxGeometry>
        </mxCell>
        <mxCell id="9iasXvsS_VbgWBKqhhfq-7" value="products" style="html=1;whiteSpace=wrap;fillColor=#d5e8d4;strokeColor=#82b366;" vertex="1" parent="1">
          <mxGeometry x="610" y="195" width="110" height="50" as="geometry" />
        </mxCell>
        <mxCell id="9iasXvsS_VbgWBKqhhfq-21" value="Mostrar productos" style="html=1;verticalAlign=bottom;endArrow=block;curved=0;rounded=0;" edge="1" parent="1">
          <mxGeometry width="80" relative="1" as="geometry">
            <mxPoint x="420" y="500" as="sourcePoint" />
            <mxPoint x="240" y="500" as="targetPoint" />
            <mxPoint as="offset" />
          </mxGeometry>
        </mxCell>
        <mxCell id="9iasXvsS_VbgWBKqhhfq-22" value="Visualiza mas productos" style="html=1;verticalAlign=bottom;endArrow=block;curved=0;rounded=0;" edge="1" parent="1">
          <mxGeometry width="80" relative="1" as="geometry">
            <mxPoint x="240" y="530" as="sourcePoint" />
            <mxPoint x="100" y="530" as="targetPoint" />
            <mxPoint as="offset" />
          </mxGeometry>
        </mxCell>
      </root>
    </mxGraphModel>
  </diagram>
</mxfile>
